<svg width="32" height="23" viewBox="0 0 32 23" fill="none" xmlns="http://www.w3.org/2000/svg">
<rect width="32" height="23" rx="3" fill="#249F58"/>
<path fill-rule="evenodd" clip-rule="evenodd" d="M15.9989 3.06668L27.4275 11.5L15.9989 19.9333L4.57031 11.5" fill="#FFDA2C"/>
<path d="M16.0013 16.8667C18.9468 16.8667 21.3346 14.4639 21.3346 11.5C21.3346 8.53607 18.9468 6.13333 16.0013 6.13333C13.0558 6.13333 10.668 8.53607 10.668 11.5C10.668 14.4639 13.0558 16.8667 16.0013 16.8667Z" fill="#1A47B8"/>
<path fill-rule="evenodd" clip-rule="evenodd" d="M13.7148 13.8V15.3333H15.2387V13.8H13.7148ZM16.7625 13.8V15.3333H18.2863V13.8H16.7625Z" fill="white"/>
<path fill-rule="evenodd" clip-rule="evenodd" d="M12.1914 9.20001C12.1914 9.20001 15.6413 9.81335 18.1282 10.8836L21.3343 12.2667" fill="white"/>
<path d="M12.1914 9.20001C12.1914 9.20001 15.6413 9.81335 18.1282 10.8836L21.3343 12.2667" stroke="white"/>
</svg>
